<svg xmlns="http://www.w3.org/2000/svg" viewBox="0 0 512 512">
  <defs>
    <linearGradient id="shieldGrad" x1="0%" y1="0%" x2="100%" y2="100%">
      <stop offset="0%" stop-color="#3b82f6" />
      <stop offset="100%" stop-color="#1d4ed8" />
    </linearGradient>
    <linearGradient id="eyeGrad" x1="0%" y1="0%" x2="100%" y2="100%">
      <stop offset="0%" stop-color="#60a5fa" />
      <stop offset="100%" stop-color="#bfdbfe" />
    </linearGradient>
    <filter id="glow" x="-20%" y="-20%" width="140%" height="140%">
      <feGaussianBlur stdDeviation="15" result="blur" />
      <feComposite in="SourceGraphic" in2="blur" operator="over" />
    </filter>
  </defs>
  <path d="M256 16 L48 96 L48 240 C48 368 136 480 256 512 C376 480 464 368 464 240 L464 96 Z" fill="url(#shieldGrad)" />
  <path d="M256 176 C160 176 96 256 96 256 C96 256 160 336 256 336 C352 336 416 256 416 256 C416 256 352 176 256 176 Z" fill="#0f172a" />
  <circle cx="256" cy="256" r="48" fill="url(#eyeGrad)" filter="url(#glow)" />
  <circle cx="256" cy="256" r="24" fill="#ffffff" />
</svg>